<?xml version="1.0" encoding="utf-8"?>
<!-- Generator: Adobe Illustrator 19.1.0, SVG Export Plug-In . SVG Version: 6.00 Build 0)  -->
<svg version="1.1" id="Capa_1" xmlns="http://www.w3.org/2000/svg" xmlns:xlink="http://www.w3.org/1999/xlink" x="0px" y="0px"
	 viewBox="0 0 137.3082428 46.25" style="enable-background:new 0 0 137.3082428 46.25;" xml:space="preserve">
<style type="text/css">
	.st0{fill:#FFFFFF;}
</style>
<g>
	<g>
		<path class="st0" d="M23.4710178,6.3478642c-7.996294,0-14.7079945,5.496376-16.5656776,12.9167938h8.0601063
			c0.6593418-0.745718,1.3650255-1.4492188,2.1138964-2.1050415h7.8176003h0.3413773
			c0.8519897-0.7657356,1.7608738-1.4689922,2.7193756-2.1034651H38.210556
			c-1.1113586,0.6159115-2.1664276,1.3205042-3.1568336,2.1037073H25.681118l0.0002422-0.0002422h-0.4421902l-0.0002422,0.0002422
			c-0.7662182,0.6544895-1.3889236,1.3573837-2.0641575,2.1047993h-8.2093229
			c-0.5912848,0.6689262-1.1465397,1.3703632-1.6586065,2.104435h8.0267448h0.2213993
			c0.4998131-0.7323742,1.0396614-1.4350243,1.6176014-2.1040707h9.5577259
			c-0.6413841,0.6646786-1.2428608,1.3676949-1.8019962,2.1047974h-9.1042576l0.0004864-0.0007267h-0.2213993L21.55826,21.3698196
			c-0.4811325,0.6753559-0.8814678,1.3782501-1.2895679,2.104435h-8.2677965
			c-0.3497486,0.6364136-0.6725655,1.28969-0.9627485,1.9606781c-0.0207443,0.0477982-0.0399122,0.0962029-0.0602932,0.1442432
			h8.1456337h0.1560097c0.2979469-0.7202415,0.6304684-1.4225292,0.9964733-2.1041927h9.2287235
			c-0.4073715,0.6798439-0.7802906,1.382616-1.1177864,2.1051636h-8.9431515l0.0004845-0.0009708h-0.1560097l-0.0004845,0.0009708
			c-0.2978268,0.6849384-0.5298996,1.3868618-0.7619743,2.1041927h-8.3240852
			c-0.1002054,0.3194199-0.1947098,0.641386-0.2814493,0.966629c-0.1002054,0.3758316-0.1904631,0.7555447-0.2721071,1.1385326
			h8.343132c0.1455765-0.7140541,0.3248787-1.4156132,0.5341454-2.1041927h9.0011406
			c-0.2420216,0.6874866-0.4527454,1.3896542-0.630228,2.1049213h-8.8212299l0.0001221-0.0007286h-0.0805531
			c-0.1534634,0.6907635-0.2419014,1.3926849-0.3322792,2.1051636H9.3002014
			c-0.0361509,0.3064384-0.0666008,0.6145782-0.0909853,0.9245338c0.2677402,0.405674,0.5517368,0.7997017,0.852231,1.1802635
			h7.4661522c0.0138302-0.7096863,0.0595665-1.4113655,0.1356297-2.1040707h8.8138313
			c-0.1049366,0.6919765-0.1788177,1.3941402-0.2212772,2.1047993h-8.7170219
			c-0.0100689,0.2816925-0.0169849,0.5641098-0.0169849,0.8482285c0,0.4214439,0.0118904,0.8402214,0.033968,1.2562065h-5.5231857
			c3.0276346,2.7329636,7.0385208,4.3975143,11.4384594,4.3975143c9.4314404,0,17.0771389-7.6456985,17.0771389-17.0771389
			S32.9024582,6.3478642,23.4710178,6.3478642z"/>
		<path class="st0" d="M10.5908623,26.5458069c0.121314-0.3260937,0.2514839-0.6478176,0.3869915-0.9666309H6.5287819
			c0.0901365,0.7163601,0.2246737,1.4191322,0.4007006,2.1051636h3.2722044
			C10.3221512,27.3005009,10.4512291,26.9206676,10.5908623,26.5458069z"/>
		<path class="st0" d="M12.0008955,23.4742546c0.3990021-0.7258205,0.8342772-1.4290791,1.3059454-2.1051617h-6.789341
			c-0.0807953,0.6741428-0.123498,1.3600521-0.123498,2.0559082c0,0.1828213,0.0038824,0.3645496,0.009584,0.5460358
			c-0.0052166-0.1651096-0.008492-0.3305817-0.0089774-0.4967823H12.0008955z"/>
		<path class="st0" d="M9.4623985,30.7561321c0.0548344-0.3246365,0.1174326-0.6467247,0.1857319-0.9666309H7.6204872
			c0.2924881,0.7277641,0.6330166,1.4310207,1.0189171,2.1051636h0.6607971
			C9.3453302,31.5122833,9.3988304,31.1325703,9.4623985,30.7561321z"/>
	</g>
	<g>
		<path class="st0" d="M22.0976219,42.1844025L21.4737034,46.25l-1.5335312-0.2351074
			c-0.2700443-0.0414886-0.4740944-0.0858879-0.6125145-0.1338081c-0.1945877-0.0639343-0.3522949-0.1530991-0.4727612-0.2670135
			c-0.1208286-0.1140327-0.2092667-0.261673-0.2657986-0.4424324c-0.0564117-0.1806374-0.069149-0.3720703-0.0383358-0.5736923
			c0.0531368-0.3455048,0.2079334-0.6213722,0.4647541-0.8268776c0.2567005-0.2058716,0.6725655-0.2644653,1.2475948-0.1762695
			l1.0428162,0.159893l0.2535458-1.6529045L22.0976219,42.1844025z M21.2322884,44.2343674l-1.0510654-0.1611061
			c-0.3476849-0.0533791-0.6043854-0.0263252-0.7702217,0.080555c-0.1659584,0.1071167-0.2668915,0.2779274-0.3029213,0.5127945
			c-0.0262032,0.16996-0.0054588,0.3223305,0.0618706,0.4565048c0.0673294,0.1342926,0.1685047,0.2317085,0.3029213,0.292244
			c0.0869808,0.0377274,0.2525749,0.0754585,0.4964161,0.1127014l1.0400257,0.1596489L21.2322884,44.2343674z"/>
		<path class="st0" d="M15.2031012,40.2653351l-0.1774826,0.4002151c0.3486567-0.2137566,0.7049561-0.2398376,1.0691404-0.0782471
			c0.1607418,0.0715752,0.2970982,0.1686249,0.409193,0.2920036c0.1119728,0.1237373,0.1811218,0.2468719,0.2072048,0.3700066
			c0.0262032,0.1228905,0.0230484,0.2581558-0.0097065,0.4054298c-0.0213509,0.0989952-0.0755768,0.2467537-0.1629238,0.4434052
			l-0.7487507,1.6875992l-0.4617214-0.205143l0.6703815-1.5103607c0.1069984-0.2410507,0.1695976-0.4077339,0.1880379-0.4999352
			c0.024868-0.1341705,0.005579-0.2568207-0.0577469-0.3677025c-0.0632038-0.1110001-0.164259-0.1972542-0.3026781-0.2587624
			c-0.1385403-0.0616264-0.2841177-0.0834618-0.4370947-0.0666008c-0.1527338,0.0173492-0.2815695,0.0756989-0.386385,0.1752968
			c-0.1046944,0.0999641-0.208539,0.2662849-0.3117771,0.4989662l-0.6475744,1.4589233l-0.4617214-0.2047768l1.2088947-2.7236252
			L15.2031012,40.2653351z"/>
		<path class="st0" d="M10.6365976,38.4075317l-0.3709784-0.3726768c0.2528181-0.1892509,0.5188599-0.2814484,0.7978821-0.2767181
			c0.2790222,0.0049744,0.5546484,0.1141586,0.8269978,0.327549c0.3431978,0.2689514,0.5323267,0.5876465,0.5675077,0.9563179
			c0.0354233,0.3687935-0.0962019,0.7438965-0.3951197,1.1251869c-0.309351,0.394516-0.6509714,0.6211281-1.0248613,0.6797256
			c-0.3738899,0.0587158-0.7227898-0.0389442-1.0466976-0.2927322c-0.3135967-0.245903-0.4861059-0.5533142-0.5174046-0.9225922
			C9.442503,39.26231,9.578496,38.8841743,9.8819027,38.4969406c0.0184393-0.0235367,0.0469484-0.0582314,0.0852842-0.104332
			l1.7489843,1.3708496c0.1871872-0.2690735,0.2690744-0.5235901,0.2452974-0.7629433
			c-0.0238991-0.2398376-0.1335669-0.436367-0.3292465-0.5895882c-0.1458197-0.1142769-0.3001308-0.1737213-0.4631777-0.177845
			C11.0059986,38.2289581,10.828516,38.2869453,10.6365976,38.4075317z M11.4378767,40.0730515l-1.3094635-1.0264397
			c-0.1369638,0.2112083-0.202837,0.3985176-0.1977425,0.5614433c0.0066729,0.2524529,0.1107597,0.4577179,0.3123837,0.6159134
			c0.182457,0.1430283,0.3839588,0.2022285,0.6041441,0.1776009C11.0672626,40.3768234,11.2642765,40.2672768,11.4378767,40.0730515
			z"/>
		<path class="st0" d="M9.3376875,35.7747726L7.040606,37.6727333l-0.2895765-0.3503571l0.3481712-0.2878761
			c-0.236805,0.0452499-0.4123464,0.0515556-0.5268669,0.0188026c-0.114399-0.0327568-0.2091455-0.0946236-0.2842388-0.1854897
			c-0.1084547-0.1312599-0.1767545-0.2992821-0.205142-0.5038185l0.472033-0.1643791
			c0.0223217,0.1415749,0.0729098,0.2600975,0.1513996,0.3549652c0.0703626,0.0851631,0.1591644,0.1406021,0.2664061,0.1659584
			c0.10712,0.0254745,0.2180014,0.0150414,0.3327641-0.0309372c0.1740856-0.071209,0.3433189-0.1748123,0.5078206-0.3106842
			l1.2025862-0.9934425L9.3376875,35.7747726z"/>
		<path class="st0" d="M6.3640375,32.228035l0.3525386-0.2830257c0.0958381,0.1090603,0.1715384,0.2126637,0.2267361,0.3102016
			c0.0901365,0.159771,0.1346588,0.2977028,0.1339307,0.4141655c-0.0009704,0.1163406-0.0323906,0.2156944-0.0943823,0.2981911
			c-0.0619917,0.0822487-0.2250376,0.1978607-0.4888959,0.3469582l-1.4927692,0.8426476l0.1819711,0.3224525l-0.3419843,0.1931305
			l-0.1820927-0.3224525L4.016489,34.7127914l-0.5107322-0.2882423l0.9064589-0.5117035l-0.2496643-0.4421883l0.3419843-0.1932564
			L4.7542,33.7197151l1.5173965-0.8563576c0.1253171-0.0709686,0.201745-0.1241035,0.2287979-0.159771
			c0.0270534-0.0357857,0.0412469-0.0771561,0.0427027-0.1241035c0.0014558-0.0468292-0.0162559-0.1029968-0.0530143-0.1682625
			C6.4624233,32.3622093,6.4204488,32.3011894,6.3640375,32.228035z"/>
		<path class="st0" d="M4.5386248,30.8038082c-0.5263815,0.1652298-0.9622631,0.1418171-1.3076441-0.0712109
			c-0.2875144-0.1782112-0.4864695-0.4430389-0.5969865-0.7943649c-0.1230125-0.390995-0.0954742-0.7506905,0.0824935-1.0792103
			c0.1779678-0.3285179,0.4927778-0.5638676,0.9443088-0.7058048c0.365762-0.1151276,0.670624-0.150671,0.914829-0.1068783
			c0.2442055,0.0437946,0.457233,0.1522503,0.639204,0.325243c0.1819711,0.1733589,0.3118982,0.3839607,0.3899035,0.6316833
			c0.125196,0.3981533,0.0988708,0.7597904-0.0790968,1.0852757C5.3475471,30.4141483,5.0186648,30.6526508,4.5386248,30.8038082z
			 M4.3827362,30.3084831c0.3640637-0.114521,0.6116657-0.2795067,0.7429276-0.4954472
			c0.1310191-0.2158165,0.1588001-0.4441299,0.0829787-0.6849384c-0.0752149-0.2388668-0.2287984-0.4094353-0.4607511-0.5108528
			c-0.2319522-0.1016617-0.5343881-0.0940189-0.907429,0.0234127c-0.3513255,0.1106377-0.5926192,0.2744122-0.7235172,0.4909573
			c-0.1306551,0.2166672-0.1589212,0.4436455-0.0841918,0.681057c0.0757,0.2406883,0.2287984,0.4122257,0.4588099,0.5144939
			C3.7219386,30.4291916,4.0187941,30.4228821,4.3827362,30.3084831z"/>
		<path class="st0" d="M4.8514938,20.5598068L4.477725,20.5188026c0.2731996,0.2199421,0.3895397,0.5124302,0.3496275,0.8768578
			C4.80127,21.6318588,4.7121038,21.8413677,4.5603399,22.02528c-0.151885,0.1837921-0.3504763,0.3172359-0.5958946,0.400095
			c-0.245297,0.0830994-0.5194666,0.1082115-0.8226306,0.0746078c-0.295521-0.0326347-0.5582871-0.1112461-0.7882986-0.2364407
			c-0.2298903-0.1250763-0.3981528-0.2932167-0.5047879-0.5045452c-0.1065137-0.2109661-0.1464261-0.4383087-0.1196157-0.6817856
			c0.0196528-0.1786957,0.0747294-0.3334923,0.165351-0.4648762c0.0907429-0.1311398,0.2012601-0.23353,0.331794-0.3075314
			l-1.467051-0.1617107l0.0549553-0.4992085l4.0886478,0.4501972L4.8514938,20.5598068z M3.1985898,21.9840336
			c0.379349,0.0416107,0.671716-0.0070362,0.8771005-0.1460629c0.2053847-0.1395111,0.3200264-0.3178425,0.3440466-0.5353584
			c0.0241418-0.2190933-0.0451288-0.4156208-0.2076893-0.5888577c-0.1624398-0.1729946-0.4277534-0.2797508-0.7958205-0.3202705
			c-0.4053102-0.0448856-0.7115068,0.0004864-0.9183474,0.1357517c-0.2068405,0.1355076-0.3228168,0.3174782-0.3480501,0.5461559
			c-0.0245054,0.2230968,0.0459781,0.4197464,0.2118144,0.5890999C2.527359,21.8343315,2.8063815,21.9408455,3.1985898,21.9840336z"
			/>
		<path class="st0" d="M5.2489185,15.6251144l0.2439628-0.4658461c0.2564578,0.1843977,0.4243565,0.4100418,0.5035748,0.6777821
			c0.079339,0.2677393,0.0582304,0.5633821-0.0635686,0.8875341c-0.1532197,0.4077358-0.4003367,0.6842098-0.7415929,0.8284531
			c-0.3408928,0.1447277-0.7381964,0.1318684-1.1917894-0.038456c-0.4691217-0.1762695-0.7880561-0.4339409-0.9564402-0.7730141
			C2.8748026,16.4028587,2.8629138,16.0407372,3.0076413,15.6552c0.1401179-0.3729191,0.3815329-0.6297407,0.7241237-0.7709503
			c0.3428338-0.1409674,0.7445042-0.1249533,1.2048914,0.0481615c0.0280232,0.0104332,0.0697556,0.027174,0.1250744,0.0501032
			l-0.7813835,2.0799284c0.3128691,0.0976582,0.5800023,0.0991135,0.8015218,0.0046101
			c0.2213984-0.0948677,0.3758311-0.2582779,0.4632983-0.4913216c0.065146-0.173357,0.0752149-0.3384666,0.0303288-0.4950829
			C5.5304885,15.92379,5.4215484,15.7717829,5.2489185,15.6251144z M3.9013622,16.8904209l0.5852191-1.5577946
			c-0.242507-0.0670872-0.4408555-0.0735168-0.5950456-0.0195313c-0.2386248,0.0820084-0.4030054,0.2429914-0.4931417,0.4831934
			c-0.0816445,0.2167883-0.0773985,0.4269037,0.0121312,0.6293783C3.5002978,16.6282597,3.6640718,16.7830563,3.9013622,16.8904209z
			"/>
		<path class="st0" d="M9.1450415,10.9863071L6.3201218,7.9966435L6.9155312,7.433989l2.7078514,1.4481263
			c0.251605,0.1356287,0.43855,0.238018,0.560956,0.3076525c-0.0687847-0.1409674-0.1666851-0.3507195-0.2938223-0.6294994
			l-1.2496567-2.756619l0.5323267-0.5027256l2.8249187,2.9895425l-0.3814116,0.3603029L9.2522831,6.1484241l1.4956808,3.3232775
			L10.391058,9.8089542L7.1215224,8.0810785l2.4049296,2.5451689L9.1450415,10.9863071z"/>
		<path class="st0" d="M15.4844284,5.8694015c-0.0954742,0.2258868-0.2055054,0.407373-0.3304596,0.5437298
			c-0.1249533,0.1365995-0.2759895,0.2495432-0.4529867,0.3387089c-0.2922449,0.1473966-0.5528278,0.1893711-0.7818689,0.1258025
			c-0.2290411-0.0633259-0.3994875-0.2061124-0.5117025-0.42836c-0.065752-0.1301699-0.0962019-0.2641006-0.0912285-0.401792
			c0.0048532-0.1376915,0.0389423-0.2632513,0.102025-0.3766799c0.0632048-0.1136713,0.1464262-0.2173948,0.2499075-0.311656
			c0.0765486-0.0680571,0.1988335-0.158072,0.3664894-0.2699237c0.3421059-0.2270999,0.5838852-0.4141665,0.7257013-0.5611987
			c-0.02948-0.0624771-0.0485258-0.1022677-0.0568972-0.1190095c-0.0928049-0.1834269-0.2006531-0.2915177-0.3236656-0.3236656
			c-0.1668062-0.043673-0.363699-0.0081282-0.5906782,0.1065135c-0.2120571,0.1069989-0.3498697,0.2233391-0.4134378,0.3485355
			c-0.0635691,0.125196-0.0718184,0.2944293-0.024991,0.5075779l-0.4711838,0.1625609
			c-0.0551977-0.2090244-0.0661163-0.3947558-0.032876-0.556953c0.0332403-0.1625609,0.1208286-0.3189344,0.2630091-0.4693642
			c0.1419373-0.1503081,0.327426-0.2830255,0.5562248-0.3985167c0.2270994-0.1145203,0.4250841-0.1810005,0.5939531-0.1991975
			c0.16887-0.0183184,0.3072891-0.0037608,0.4148941,0.0434303c0.1076059,0.0474339,0.2059917,0.1259241,0.2950363,0.235956
			c0.0539846,0.0692701,0.1313829,0.2041717,0.2324381,0.4044609l0.3035269,0.6012325
			c0.2115726,0.4190187,0.3549652,0.679359,0.4301805,0.7807775c0.0753365,0.1014185,0.1671696,0.1886435,0.275383,0.2616744
			L15.740159,6.1518207C15.6462612,6.0818224,15.5609779,5.9876828,15.4844284,5.8694015z M14.9385157,4.8812985
			c-0.1299276,0.1494589-0.3467159,0.3300958-0.6503649,0.5420313c-0.1719017,0.1203437-0.2877569,0.2165456-0.3478079,0.2886062
			c-0.0599289,0.0723033-0.0946245,0.1509147-0.1038446,0.23632c-0.0090981,0.085526,0.0059443,0.1672916,0.0454931,0.2460246
			c0.0607786,0.1199799,0.1567373,0.1972566,0.2883635,0.2314672c0.1312618,0.0340891,0.2848454,0.0070362,0.4600229-0.0815229
			c0.1736002-0.0875888,0.3089867-0.2036862,0.4059172-0.3476863c0.0969296-0.1443634,0.143878-0.2985539,0.1407242-0.4624491
			c-0.0031548-0.1261668-0.0547132-0.2887273-0.1549187-0.4875612L14.9385157,4.8812985z"/>
		<path class="st0" d="M19.2067089,4.5231795l0.184639,0.4127102c-0.1296844,0.065146-0.2489357,0.1122155-0.3573914,0.1408458
			c-0.1772404,0.0469484-0.3220882,0.0551982-0.4345474,0.0249906c-0.1125793-0.0302072-0.2006531-0.0857687-0.2645855-0.166564
			c-0.0640545-0.0806737-0.134779-0.2674975-0.2122993-0.5605922l-0.4384289-1.6572714l-0.3579979,0.0947461l-0.1004486-0.3795917
			l0.3579979-0.0948675l-0.1887646-0.713448l0.4081001-0.4213238l0.2661629,1.0063002l0.4909592-0.1299274l0.1005688,0.3797131
			l-0.4910793,0.129806l0.4458294,1.684567c0.0367584,0.13939,0.0689068,0.2266145,0.0966873,0.261796
			c0.0276604,0.0353022,0.0640545,0.0595651,0.1091824,0.0726671c0.0451298,0.0132232,0.1038456,0.0103116,0.1761475-0.0088563
			C19.0516682,4.5844431,19.1215458,4.5593309,19.2067089,4.5231795z"/>
		<path class="st0" d="M23.2281475,4.121994c-0.1783314,0.1686263-0.3522949,0.2903047-0.5214081,0.3650341
			c-0.1693535,0.0743651-0.3530235,0.1170678-0.5510082,0.127501c-0.3269405,0.0173478-0.5823078-0.0491323-0.7664623-0.1996832
			c-0.1840324-0.1501865-0.2826614-0.349627-0.2958851-0.5980783c-0.0076427-0.1455767,0.0184402-0.280478,0.0783691-0.4045823
			c0.0596867-0.1239831,0.1414528-0.2252803,0.2451763-0.3037705c0.1033592-0.0783689,0.2215195-0.1399963,0.3538723-0.1845186
			c0.0976582-0.0314205,0.2456608-0.0646605,0.4443741-0.0994775c0.404583-0.070241,0.7013168-0.1439998,0.8900814-0.2215195
			c-0.0016994-0.069149-0.0031548-0.1133075-0.0041256-0.1319897c-0.0110397-0.2055061-0.0663586-0.3474436-0.1659565-0.4266615
			c-0.1350231-0.1069992-0.3294888-0.153705-0.5834007-0.1403605c-0.2372894,0.0124954-0.410284,0.0635686-0.5188599,0.152613
			c-0.1086979,0.0890446-0.1843967,0.2406871-0.2273426,0.4545639l-0.4966602-0.0408828
			c0.0336056-0.2135129,0.0983868-0.3879623,0.1941032-0.5233489c0.0959587-0.1351439,0.2391109-0.242992,0.4298153-0.3231807
			c0.190464-0.0803099,0.4135609-0.1276224,0.6695328-0.1410882c0.2539101-0.0134658,0.4620857,0.0054592,0.6239185,0.056775
			c0.1619549,0.0515585,0.2826614,0.1202223,0.3622437,0.2069619c0.0794601,0.0866182,0.1380558,0.1983484,0.1751766,0.3349481
			c0.0213528,0.0849199,0.0379715,0.2394741,0.04986,0.4636624l0.0357895,0.6726863
			c0.024868,0.4686363,0.0513153,0.7644,0.0794601,0.8876553c0.0280228,0.1230121,0.0769119,0.2399592,0.1465473,0.3505974
			l-0.5268669,0.0279021C23.2906246,4.3818488,23.2504692,4.2612624,23.2281475,4.121994z M23.1263657,2.9977765
			c-0.1793022,0.0845559-0.4504395,0.1626821-0.8136539,0.2343788c-0.2058697,0.0408828-0.3505974,0.0823722-0.4345474,0.124347
			c-0.0839481,0.0418532-0.147274,0.1002054-0.1902199,0.1744494c-0.0428238,0.0743656-0.0619907,0.155282-0.0573807,0.2431135
			c0.0071564,0.1346586,0.0640526,0.2440836,0.1705666,0.3282759c0.106636,0.0843129,0.2579136,0.1210713,0.4540787,0.1106381
			c0.1942234-0.0103116,0.3647919-0.0618701,0.5115814-0.1547966c0.1467896-0.0931692,0.2517262-0.2153325,0.3148098-0.3667324
			c0.0481625-0.1167042,0.0662384-0.2864225,0.0545921-0.5085485L23.1263657,2.9977765z"/>
		<path class="st0" d="M26.0019932,4.6569891L26.489069,1.717064l0.4484997,0.0743655l-0.0738811,0.4457078
			c0.1488533-0.1894925,0.2774448-0.3095934,0.385294-0.3598175c0.1079693-0.0504667,0.2200642-0.0659949,0.3361607-0.0467058
			c0.1680202,0.0276595,0.3298531,0.1096679,0.4856205,0.2452971l-0.248209,0.4338191
			c-0.1100311-0.0920775-0.2257652-0.1482458-0.3475647-0.1685052c-0.1089401-0.0180759-0.2120571-0.0014558-0.3097153,0.0497386
			c-0.0976563,0.0510733-0.1744499,0.131747-0.2304955,0.2419002c-0.0849209,0.1677773-0.1446075,0.3570273-0.1795464,0.5675073
			l-0.254879,1.5388687L26.0019932,4.6569891z"/>
		<path class="st0" d="M31.3009911,5.77599c-0.2326794,0.0780048-0.4415817,0.1151271-0.6264648,0.1114874
			c-0.1851254-0.0036392-0.3695221-0.0422173-0.5536766-0.1159763c-0.303772-0.1216779-0.5074577-0.2896976-0.6110592-0.5034533
			c-0.1038456-0.2138767-0.1094265-0.4362454-0.0168629-0.6672273c0.0542278-0.1352654,0.134779-0.2466316,0.241293-0.3340988
			c0.1063919-0.087225,0.2232189-0.1448493,0.3501129-0.172266c0.1270161-0.027781,0.2599754-0.033968,0.39888-0.0186825
			c0.1017838,0.0127382,0.2500286,0.0448861,0.4449806,0.0968084c0.3964539,0.106514,0.6968269,0.1643806,0.9007568,0.1737218
			c0.0272961-0.0638108,0.0446434-0.1042085,0.0515575-0.121314c0.0765495-0.1910696,0.086256-0.3433187,0.0289955-0.4571111
			c-0.0773983-0.1538262-0.2340145-0.2781732-0.4702148-0.3726768c-0.2204266-0.0886807-0.3987579-0.1151271-0.5347519-0.0800674
			c-0.1359921,0.035181-0.2684669,0.1408458-0.3975449,0.3168724L30.073658,3.3857388
			c0.1203423-0.1795447,0.2524548-0.3104427,0.3963318-0.3926935c0.1437588-0.0824935,0.3190575-0.120101,0.5257759-0.1127009
			c0.2067184,0.0071576,0.4288445,0.0584736,0.6667423,0.1538262c0.2361984,0.094625,0.4168339,0.1993191,0.5421505,0.3140821
			c0.1253204,0.1148844,0.2058716,0.2279491,0.2416611,0.3400433c0.0355453,0.1120942,0.0416107,0.2380183,0.0178299,0.3775294
			c-0.0163765,0.0860119-0.0662346,0.2332869-0.1498222,0.4417048l-0.2505112,0.62501
			c-0.1746941,0.4358811-0.2752628,0.7155104-0.301466,0.8388867c-0.0264473,0.1233764-0.0312996,0.249907-0.014679,0.3797131
			l-0.489624-0.1965289C31.2484627,6.0381494,31.2627773,5.9118614,31.3009911,5.77599z M31.681675,4.7135215
			c-0.1979847,0.0012131-0.4770069-0.0420961-0.8367023-0.1300488c-0.2038078-0.0492535-0.3526592-0.0727887-0.4464359-0.0701199
			c-0.0937767,0.0030332-0.1759052,0.028873-0.2460251,0.0782475c-0.0701199,0.0493751-0.1216774,0.115006-0.1543121,0.1967716
			c-0.0502224,0.1249533-0.0446434,0.2479658,0.0166206,0.3695226c0.061264,0.1210713,0.1830635,0.218123,0.3652763,0.291275
			c0.1806374,0.0724244,0.3571491,0.0974154,0.5292931,0.0746083c0.1723881-0.0225644,0.3188133-0.0892873,0.4398861-0.200047
			c0.092804-0.0856476,0.1806355-0.2319522,0.2634926-0.4383078L31.681675,4.7135215z"/>
		<path class="st0" d="M33.5855789,7.3858275l1.7512894-2.4106317l0.3677025,0.2671332l-0.2489357,0.3427124
			c0.3694-0.1361146,0.7213326-0.0828576,1.0557976,0.1602559c0.1453323,0.1055431,0.2598534,0.2285557,0.3438034,0.3694015
			c0.083828,0.1409669,0.1251945,0.2753825,0.1243477,0.4043398c-0.0012169,0.1287141-0.0319061,0.260097-0.0923233,0.3942704
			c-0.0399094,0.0863757-0.1284714,0.224431-0.2659187,0.4134383l-1.0769043,1.4825788L35.135849,8.5123501l1.0653801-1.4663234
			c0.1208305-0.1664429,0.1954384-0.3025575,0.2235832-0.4082217c0.0282669-0.105422,0.0195313-0.2124209-0.0254745-0.320148
			c-0.045372-0.1079693-0.122406-0.201745-0.2315903-0.2809634c-0.1739655-0.1265302-0.3643036-0.180151-0.5707817-0.1615901
			c-0.2065964,0.0186825-0.4220505,0.1822138-0.6463623,0.4909577l-0.956562,1.3167429L33.5855789,7.3858275z"/>
		<path class="st0" d="M37.2078934,10.4174662l2.194088-2.0164824l0.3418617,0.3721914l-2.1942062,2.0159969L37.2078934,10.4174662z
			 M39.8088684,8.027215l0.4277534-0.3931789l0.3417435,0.3719492L40.1506119,8.398921L39.8088684,8.027215z"/>
	</g>
	<g>
		<path class="st0" d="M132.1110382,26.9472351c1.1126862,1.7937489,3.3744659,5.3970184,3.3744659,5.3970184h-7.2960663
			l-3.4465332-5.4698067h-3.4086838l-1.8937149,5.4698067h-6.6162262l6.3193741-18.2316818c0,0,9.3227463,0.0060654,13.6648178,0
			c1.8499146-0.0026693,3.1235962,0.938364,4.0148773,2.4761419c0.753006,1.2991524,0.850174,2.7074871,0.6384888,4.1618004
			c-0.2146149,1.4756641-0.5806122,2.8894577-1.5415497,4.0839157
			C134.95755,26.0310707,133.6779175,26.6572933,132.1110382,26.9472351z M122.9800873,22.1951199
			c0,0,4.342804,0.0109177,6.3028717,0c0.6804504-0.0037613,1.2771912-0.2167873,1.8261414-0.5861893
			c0.7138062-0.4802818,0.8637543-1.2882347,0.6734161-2.074955c-0.1221619-0.5049095-0.7301941-0.7953358-1.5402069-0.7954578
			c-0.9253845-0.0001202-6.0364685,0-6.0364685,0L122.9800873,22.1951199z"/>
		<path class="st0" d="M70.4450378,32.4245644l1.6084976-4.7089272c0,0,8.8482895,0.0370007,13.0149384,0.0105553
			c0.3422318-0.0021839,0.733345-0.1825771,1.01091-0.3974247c0.3047409-0.2359562,0.4503174-0.6365356,0.2488174-1.0309277
			c-0.2053833-0.4021568-0.5198288-0.6675911-1.0178223-0.6655293c-1.9316864,0.007885-3.8634949,0.003397-5.7952957,0.0031548
			c-1.911911-0.0002422-3.8000412-1.2259998-4.4774628-3.0039787c-0.2074432-0.5444584-0.2733154-1.1763821-0.259491-1.7647552
			c0.0304489-1.297575,0.3223343-2.5514774,1.0261993-3.6642914c0.9689331-1.5320759,2.3149109-2.5798655,4.1307449-2.869442
			c1.0613708-0.1693544,2.1466522-0.2728348,3.2219772-0.2801142c4.5018463-0.030571,13.8142776,0,13.8142776,0l-1.5752716,4.692914
			l-13.1259308-0.006794c-0.758461,0.0001202-1.206955,0.3620014-1.2549973,1.0041161
			c-0.0511932,0.6839695,0.337616,1.1010456,1.0420914,1.1021385c1.8679886,0.0031548,3.7362289-0.0277805,5.6037369,0
			c1.7617188,0.0263252,3.2055969,0.7385597,4.2279129,2.1986961c0.4138031,0.5910416,0.6247711,1.2501411,0.652916,2.001318
			c0.0621109,1.6560574-0.2785416,3.1831589-1.2152023,4.559103c-0.9376373,1.3776436-2.2257538,2.2587471-3.8676147,2.5398312
			c-0.949646,0.1625595-1.9210052,0.2687111-2.8832703,0.2741699
			C79.9780197,32.4440956,70.4450378,32.4245644,70.4450378,32.4245644z"/>
		<path class="st0" d="M104.8323517,14.146903c0,0-2.5321884,7.4170198-3.4319763,10.1003656
			c-0.2257614,0.6730499-0.38311,1.3675728-0.1230087,2.0994606c0.257309,0.7240028,0.8026123,1.0883083,1.4830627,1.1841469
			c1.0696259,0.1505508,2.097641-0.0690269,2.9912415-0.7113857c1.163887-0.8365822,1.8798828-1.9745064,2.322197-3.3397751
			c0.6046219-1.8659325,3.2674713-9.3519802,3.2674713-9.3519802h6.6026382l-6.3543091,18.2384758h-6.60009l0.7844162-2.2956238
			c0,0-0.4005814,0.3412552-0.5103683,0.4340611c-1.0946198,0.9262333-2.3195267,1.6230602-3.7103958,1.9754772
			c-0.9947739,0.2520905-2.0267944,0.3082581-3.0323639,0.0909882c-0.7648849-0.1651115-1.5517273-0.367218-2.2386017-0.7257023
			c-1.3328857-0.695858-1.8829193-1.9110603-2.0443878-3.3853912c-0.2074509-1.8939552,0.2958832-3.6338406,0.9216232-5.3744545
			c0.7435303-2.0680408,3.1711502-8.9386625,3.1711502-8.9386625H104.8323517z"/>
		<polygon class="st0" points="48.2474747,32.3372192 52.990612,18.7383976 46.2195892,18.7383976 47.8191147,14.1409578 
			67.4927368,14.1409578 65.8805923,18.7383976 59.6067162,18.7383976 54.8628502,32.3377037 		"/>
		<polygon class="st0" points="62.3194199,32.3429184 68.6698456,14.1401091 75.3057251,14.1401091 68.9614868,32.3429184 		"/>
	</g>
	<g>
		<g>
			<path class="st0" d="M29.6015034,45.5895653l-1.2767086-3.7338028l1.4083347-0.4814949
				c0.2479649-0.0848007,0.4413395-0.1376915,0.5801239-0.15868c0.1938591-0.0320282,0.3674603-0.0265694,0.5206795,0.016861
				c0.1532192,0.0434341,0.2940655,0.1293221,0.4225368,0.2580376c0.1283512,0.1288338,0.2241879,0.2855721,0.2875137,0.4705772
				c0.1084557,0.3176003,0.0993576,0.6207619-0.0275383,0.9097328c-0.1267719,0.2889709-0.4541988,0.5238342-0.9822788,0.7043495
				l-0.957653,0.327549l0.5191021,1.5178795L29.6015034,45.5895653z M29.4258404,43.4620819l0.9652958-0.3302155
				c0.3191776-0.1090622,0.5255337-0.2461472,0.6190662-0.4108925c0.0934124-0.1645012,0.1033592-0.3547211,0.0296001-0.5704193
				c-0.0533772-0.1561317-0.1386623-0.276474-0.2556076-0.3606644c-0.1169472-0.0841942-0.2460251-0.1220436-0.3873558-0.1135521
				c-0.090744,0.0064316-0.2480888,0.0479202-0.4722767,0.1245918l-0.9551048,0.3265762L29.4258404,43.4620819z"/>
			<path class="st0" d="M35.3436623,42.0086174l0.4625702-0.2012596c0.0806732,0.2921257,0.070118,0.5619278-0.0317841,0.8095284
				c-0.1019058,0.2477226-0.2956429,0.4558983-0.5815811,0.6246452c-0.3601799,0.2122993-0.7110214,0.2699242-1.0528831,0.1725082
				c-0.3418617-0.0971718-0.6308327-0.3459854-0.8670311-0.7462006c-0.2443275-0.4142876-0.3273048-0.7986107-0.2490578-1.1532135
				c0.0782471-0.3544769,0.2873917-0.6321678,0.6274338-0.8328209c0.3292465-0.1940994,0.6643181-0.2406845,1.0050888-0.1397514
				c0.3408928,0.1010551,0.6311951,0.3547211,0.8710365,0.7611237c0.0145569,0.0247459,0.0356636,0.062355,0.063324,0.1125793
				l-1.835968,1.0834541c0.1750565,0.2614326,0.3737717,0.4231453,0.5960159,0.4857445
				c0.2223701,0.0625954,0.436367,0.0332375,0.6419945-0.0879555c0.1528549-0.0902557,0.2598572-0.2075653,0.3205109-0.3518105
				C35.3741112,42.4010696,35.384182,42.2221298,35.3436623,42.0086174z M33.5755081,42.1423073l1.3746109-0.8109856
				c-0.1406021-0.1962852-0.2848473-0.3203926-0.4324837-0.3730392c-0.2277069-0.0822525-0.4474068-0.0610237-0.6592216,0.0639305
				c-0.191555,0.1131859-0.3148117,0.2723503-0.3697662,0.4776154
				C33.4336929,41.7052116,33.4626884,41.9193306,33.5755081,42.1423073z"/>
			<path class="st0" d="M37.6445045,41.4933968l-1.8205605-2.2037926l0.3361626-0.2778091l0.2761078,0.3342209
				c-0.0434303-0.2271004-0.0493736-0.3956032-0.0178299-0.505394c0.0315399-0.1099091,0.0908623-0.2006531,0.1779671-0.2728348
				c0.1259232-0.1038437,0.2869072-0.1695976,0.4833145-0.1966515l0.1575851,0.4528656
				c-0.1358719,0.0213509-0.2494202,0.0699997-0.3407707,0.1452141c-0.0816422,0.0675735-0.1346588,0.1526146-0.1590424,0.2554855
				c-0.0245056,0.1028748-0.0145569,0.2092667,0.0297241,0.3193016c0.0681763,0.1669273,0.1674118,0.3293648,0.2977028,0.4870758
				l0.953167,1.1538162L37.6445045,41.4933968z"/>
			<path class="st0" d="M41.1225777,38.1145592l-0.3144455-0.2781754c0.0945053,0.3805618,0.0151634,0.7141762-0.238018,1.0003548
				c-0.1117287,0.1264114-0.2403221,0.2229767-0.3855362,0.2896996c-0.1453323,0.0668449-0.2780533,0.0942612-0.3981514,0.0824928
				c-0.1203461-0.0115242-0.2429924-0.0536194-0.3681908-0.1260452c-0.0843124-0.0481606-0.2036858-0.1407242-0.3583603-0.2774429
				l-1.3266907-1.1732292l0.3209953-0.3629723l1.1875458,1.0503387c0.1896133,0.1676559,0.3237877,0.2731972,0.4027634,0.3166275
				c0.115612,0.0616264,0.233284,0.0794601,0.3531456,0.0536232c0.1198578-0.0257187,0.2278252-0.0930481,0.3241501-0.2019882
				c0.0963211-0.1089401,0.1587982-0.2355919,0.1874313-0.3804436c0.0286293-0.1447258,0.0123711-0.2795067-0.0486488-0.4042168
				c-0.0610199-0.1245918-0.1829414-0.2676201-0.3657608-0.429451l-1.1472664-1.0145493l0.3209953-0.3628502l2.1411934,1.893589
				L41.1225777,38.1145592z M38.0413208,36.7475891l-0.3274231-0.7674294l0.4208374-0.4757957l0.172142,0.942852
				L38.0413208,36.7475891z"/>
		</g>
	</g>
</g>
</svg>
