<?xml version="1.0" encoding="utf-8"?>
<!-- Generator: Adobe Illustrator 19.1.0, SVG Export Plug-In . SVG Version: 6.00 Build 0)  -->
<svg version="1.1" id="Capa_1" xmlns="http://www.w3.org/2000/svg" xmlns:xlink="http://www.w3.org/1999/xlink" x="0px" y="0px"
	 viewBox="-228 397.6 137.3 46.3" style="enable-background:new -228 397.6 137.3 46.3;" xml:space="preserve">
<style type="text/css">
	.st0{fill:#228523;}
</style>
<g>
	<g>
		<path class="st0" d="M-204.5,404c-8,0-14.7,5.5-16.6,12.9h8.1c0.7-0.7,1.4-1.4,2.1-2.1h7.8h0.3c0.9-0.8,1.8-1.5,2.7-2.1h10.3
			c-1.1,0.6-2.2,1.3-3.2,2.1h-9.4l0,0h-0.4l0,0c-0.8,0.7-1.4,1.4-2.1,2.1h-8.2c-0.6,0.7-1.1,1.4-1.7,2.1h8h0.2
			c0.5-0.7,1-1.4,1.6-2.1h9.6c-0.6,0.7-1.2,1.4-1.8,2.1h-9.1l0,0h-0.2l0,0c-0.5,0.7-0.9,1.4-1.3,2.1h-8.3c-0.3,0.6-0.7,1.3-1,2
			c0,0,0,0.1-0.1,0.1h8.1h0.2c0.3-0.7,0.6-1.4,1-2.1h9.2c-0.4,0.7-0.8,1.4-1.1,2.1h-8.9l0,0h-0.2l0,0c-0.3,0.7-0.5,1.4-0.8,2.1h-8.3
			c-0.1,0.3-0.2,0.6-0.3,1c-0.1,0.4-0.2,0.8-0.3,1.1h8.3c0.1-0.7,0.3-1.4,0.5-2.1h9c-0.2,0.7-0.5,1.4-0.6,2.1h-8.8l0,0h-0.1
			c-0.2,0.7-0.2,1.4-0.3,2.1h-8.4c0,0.3-0.1,0.6-0.1,0.9c0.3,0.4,0.6,0.8,0.9,1.2h7.5c0-0.7,0.1-1.4,0.1-2.1h8.8
			c-0.1,0.7-0.2,1.4-0.2,2.1h-8.7c0,0.3,0,0.6,0,0.8c0,0.4,0,0.8,0,1.3h-5.5c3,2.7,7,4.4,11.4,4.4c9.4,0,17.1-7.6,17.1-17.1
			S-195.1,404-204.5,404z"/>
		<path class="st0" d="M-217.4,424.2c0.1-0.3,0.3-0.6,0.4-1h-4.4c0.1,0.7,0.2,1.4,0.4,2.1h3.3C-217.7,424.9-217.5,424.6-217.4,424.2
			z"/>
		<path class="st0" d="M-216,421.1c0.4-0.7,0.8-1.4,1.3-2.1h-6.8c-0.1,0.7-0.1,1.4-0.1,2.1c0,0.2,0,0.4,0,0.5c0-0.2,0-0.3,0-0.5
			H-216z"/>
		<path class="st0" d="M-218.5,428.4c0.1-0.3,0.1-0.6,0.2-1h-2c0.3,0.7,0.6,1.4,1,2.1h0.7C-218.7,429.2-218.6,428.8-218.5,428.4z"/>
	</g>
	<g>
		<path class="st0" d="M-205.9,439.8l-0.6,4.1l-1.5-0.2c-0.3,0-0.5-0.1-0.6-0.1c-0.2-0.1-0.4-0.2-0.5-0.3c-0.1-0.1-0.2-0.3-0.3-0.4
			c-0.1-0.2-0.1-0.4,0-0.6c0.1-0.3,0.2-0.6,0.5-0.8c0.3-0.2,0.7-0.3,1.2-0.2l1,0.2l0.3-1.7L-205.9,439.8z M-206.8,441.9l-1.1-0.2
			c-0.3-0.1-0.6,0-0.8,0.1c-0.2,0.1-0.3,0.3-0.3,0.5c0,0.2,0,0.3,0.1,0.5c0.1,0.1,0.2,0.2,0.3,0.3c0.1,0,0.3,0.1,0.5,0.1l1,0.2
			L-206.8,441.9z"/>
		<path class="st0" d="M-212.8,437.9l-0.2,0.4c0.3-0.2,0.7-0.2,1.1-0.1c0.2,0.1,0.3,0.2,0.4,0.3c0.1,0.1,0.2,0.2,0.2,0.4
			c0,0.1,0,0.3,0,0.4c0,0.1-0.1,0.2-0.2,0.4l-0.7,1.7l-0.5-0.2l0.7-1.5c0.1-0.2,0.2-0.4,0.2-0.5c0-0.1,0-0.3-0.1-0.4
			c-0.1-0.1-0.2-0.2-0.3-0.3c-0.1-0.1-0.3-0.1-0.4-0.1c-0.2,0-0.3,0.1-0.4,0.2c-0.1,0.1-0.2,0.3-0.3,0.5l-0.6,1.5l-0.5-0.2l1.2-2.7
			L-212.8,437.9z"/>
		<path class="st0" d="M-217.4,436l-0.4-0.4c0.3-0.2,0.5-0.3,0.8-0.3c0.3,0,0.6,0.1,0.8,0.3c0.3,0.3,0.5,0.6,0.6,1
			c0,0.4-0.1,0.7-0.4,1.1c-0.3,0.4-0.7,0.6-1,0.7c-0.4,0.1-0.7,0-1-0.3c-0.3-0.2-0.5-0.6-0.5-0.9c0-0.4,0.1-0.7,0.4-1.1
			c0,0,0-0.1,0.1-0.1l1.7,1.4c0.2-0.3,0.3-0.5,0.2-0.8c0-0.2-0.1-0.4-0.3-0.6c-0.1-0.1-0.3-0.2-0.5-0.2
			C-217,435.9-217.2,435.9-217.4,436z M-216.6,437.7l-1.3-1c-0.1,0.2-0.2,0.4-0.2,0.6c0,0.3,0.1,0.5,0.3,0.6
			c0.2,0.1,0.4,0.2,0.6,0.2C-216.9,438-216.7,437.9-216.6,437.7z"/>
		<path class="st0" d="M-218.7,433.4l-2.3,1.9l-0.3-0.4l0.3-0.3c-0.2,0-0.4,0.1-0.5,0c-0.1,0-0.2-0.1-0.3-0.2
			c-0.1-0.1-0.2-0.3-0.2-0.5l0.5-0.2c0,0.1,0.1,0.3,0.2,0.4c0.1,0.1,0.2,0.1,0.3,0.2c0.1,0,0.2,0,0.3,0c0.2-0.1,0.3-0.2,0.5-0.3
			l1.2-1L-218.7,433.4z"/>
		<path class="st0" d="M-221.6,429.9l0.4-0.3c0.1,0.1,0.2,0.2,0.2,0.3c0.1,0.2,0.1,0.3,0.1,0.4c0,0.1,0,0.2-0.1,0.3
			c-0.1,0.1-0.2,0.2-0.5,0.3l-1.5,0.8l0.2,0.3l-0.3,0.2l-0.2-0.3l-0.6,0.4l-0.5-0.3l0.9-0.5l-0.2-0.4l0.3-0.2l0.2,0.4l1.5-0.9
			c0.1-0.1,0.2-0.1,0.2-0.2c0,0,0-0.1,0-0.1c0,0,0-0.1-0.1-0.2C-221.5,430-221.6,429.9-221.6,429.9z"/>
		<path class="st0" d="M-223.5,428.4c-0.5,0.2-1,0.1-1.3-0.1c-0.3-0.2-0.5-0.4-0.6-0.8c-0.1-0.4-0.1-0.8,0.1-1.1
			c0.2-0.3,0.5-0.6,0.9-0.7c0.4-0.1,0.7-0.2,0.9-0.1s0.5,0.2,0.6,0.3c0.2,0.2,0.3,0.4,0.4,0.6c0.1,0.4,0.1,0.8-0.1,1.1
			C-222.7,428.1-223,428.3-223.5,428.4z M-223.6,427.9c0.4-0.1,0.6-0.3,0.7-0.5c0.1-0.2,0.2-0.4,0.1-0.7c-0.1-0.2-0.2-0.4-0.5-0.5
			c-0.2-0.1-0.5-0.1-0.9,0c-0.4,0.1-0.6,0.3-0.7,0.5c-0.1,0.2-0.2,0.4-0.1,0.7c0.1,0.2,0.2,0.4,0.5,0.5
			C-224.3,428.1-224,428.1-223.6,427.9z"/>
		<path class="st0" d="M-223.1,418.2l-0.4,0c0.3,0.2,0.4,0.5,0.3,0.9c0,0.2-0.1,0.4-0.3,0.6c-0.2,0.2-0.4,0.3-0.6,0.4
			c-0.2,0.1-0.5,0.1-0.8,0.1c-0.3,0-0.6-0.1-0.8-0.2c-0.2-0.1-0.4-0.3-0.5-0.5c-0.1-0.2-0.1-0.4-0.1-0.7c0-0.2,0.1-0.3,0.2-0.5
			c0.1-0.1,0.2-0.2,0.3-0.3l-1.5-0.2l0.1-0.5l4.1,0.5L-223.1,418.2z M-224.8,419.6c0.4,0,0.7,0,0.9-0.1c0.2-0.1,0.3-0.3,0.3-0.5
			c0-0.2,0-0.4-0.2-0.6c-0.2-0.2-0.4-0.3-0.8-0.3c-0.4,0-0.7,0-0.9,0.1c-0.2,0.1-0.3,0.3-0.3,0.5c0,0.2,0,0.4,0.2,0.6
			C-225.5,419.5-225.2,419.6-224.8,419.6z"/>
		<path class="st0" d="M-222.8,413.3l0.2-0.5c0.3,0.2,0.4,0.4,0.5,0.7c0.1,0.3,0.1,0.6-0.1,0.9c-0.2,0.4-0.4,0.7-0.7,0.8
			c-0.3,0.1-0.7,0.1-1.2,0c-0.5-0.2-0.8-0.4-1-0.8c-0.2-0.3-0.2-0.7,0-1.1c0.1-0.4,0.4-0.6,0.7-0.8c0.3-0.1,0.7-0.1,1.2,0
			c0,0,0.1,0,0.1,0.1l-0.8,2.1c0.3,0.1,0.6,0.1,0.8,0c0.2-0.1,0.4-0.3,0.5-0.5c0.1-0.2,0.1-0.3,0-0.5
			C-222.5,413.6-222.6,413.4-222.8,413.3z M-224.1,414.5l0.6-1.6c-0.2-0.1-0.4-0.1-0.6,0c-0.2,0.1-0.4,0.2-0.5,0.5
			c-0.1,0.2-0.1,0.4,0,0.6C-224.5,414.3-224.3,414.4-224.1,414.5z"/>
		<path class="st0" d="M-218.9,408.6l-2.8-3l0.6-0.6l2.7,1.4c0.3,0.1,0.4,0.2,0.6,0.3c-0.1-0.1-0.2-0.4-0.3-0.6l-1.2-2.8l0.5-0.5
			l2.8,3l-0.4,0.4l-2.4-2.5l1.5,3.3l-0.4,0.3l-3.3-1.7l2.4,2.5L-218.9,408.6z"/>
		<path class="st0" d="M-212.5,403.5c-0.1,0.2-0.2,0.4-0.3,0.5c-0.1,0.1-0.3,0.2-0.5,0.3c-0.3,0.1-0.6,0.2-0.8,0.1
			c-0.2-0.1-0.4-0.2-0.5-0.4c-0.1-0.1-0.1-0.3-0.1-0.4c0-0.1,0-0.3,0.1-0.4c0.1-0.1,0.1-0.2,0.2-0.3c0.1-0.1,0.2-0.2,0.4-0.3
			c0.3-0.2,0.6-0.4,0.7-0.6c0-0.1,0-0.1-0.1-0.1c-0.1-0.2-0.2-0.3-0.3-0.3c-0.2,0-0.4,0-0.6,0.1c-0.2,0.1-0.3,0.2-0.4,0.3
			c-0.1,0.1-0.1,0.3,0,0.5l-0.5,0.2c-0.1-0.2-0.1-0.4,0-0.6c0-0.2,0.1-0.3,0.3-0.5c0.1-0.2,0.3-0.3,0.6-0.4c0.2-0.1,0.4-0.2,0.6-0.2
			c0.2,0,0.3,0,0.4,0c0.1,0,0.2,0.1,0.3,0.2c0.1,0.1,0.1,0.2,0.2,0.4l0.3,0.6c0.2,0.4,0.4,0.7,0.4,0.8c0.1,0.1,0.2,0.2,0.3,0.3
			l-0.5,0.2C-212.4,403.7-212.4,403.6-212.5,403.5z M-213.1,402.5c-0.1,0.1-0.3,0.3-0.7,0.5c-0.2,0.1-0.3,0.2-0.3,0.3
			c-0.1,0.1-0.1,0.2-0.1,0.2c0,0.1,0,0.2,0,0.2c0.1,0.1,0.2,0.2,0.3,0.2c0.1,0,0.3,0,0.5-0.1c0.2-0.1,0.3-0.2,0.4-0.3
			c0.1-0.1,0.1-0.3,0.1-0.5c0-0.1-0.1-0.3-0.2-0.5L-213.1,402.5z"/>
		<path class="st0" d="M-208.8,402.2l0.2,0.4c-0.1,0.1-0.2,0.1-0.4,0.1c-0.2,0-0.3,0.1-0.4,0c-0.1,0-0.2-0.1-0.3-0.2
			c-0.1-0.1-0.1-0.3-0.2-0.6l-0.4-1.7l-0.4,0.1l-0.1-0.4l0.4-0.1l-0.2-0.7l0.4-0.4l0.3,1l0.5-0.1l0.1,0.4l-0.5,0.1l0.4,1.7
			c0,0.1,0.1,0.2,0.1,0.3c0,0,0.1,0.1,0.1,0.1c0,0,0.1,0,0.2,0C-208.9,402.2-208.9,402.2-208.8,402.2z"/>
		<path class="st0" d="M-204.8,401.8c-0.2,0.2-0.4,0.3-0.5,0.4c-0.2,0.1-0.4,0.1-0.6,0.1c-0.3,0-0.6,0-0.8-0.2
			c-0.2-0.2-0.3-0.3-0.3-0.6c0-0.1,0-0.3,0.1-0.4c0.1-0.1,0.1-0.2,0.2-0.3c0.1-0.1,0.2-0.1,0.4-0.2c0.1,0,0.2-0.1,0.4-0.1
			c0.4-0.1,0.7-0.1,0.9-0.2c0-0.1,0-0.1,0-0.1c0-0.2-0.1-0.3-0.2-0.4c-0.1-0.1-0.3-0.2-0.6-0.1c-0.2,0-0.4,0.1-0.5,0.2
			c-0.1,0.1-0.2,0.2-0.2,0.5l-0.5,0c0-0.2,0.1-0.4,0.2-0.5c0.1-0.1,0.2-0.2,0.4-0.3c0.2-0.1,0.4-0.1,0.7-0.1c0.3,0,0.5,0,0.6,0.1
			c0.2,0.1,0.3,0.1,0.4,0.2c0.1,0.1,0.1,0.2,0.2,0.3c0,0.1,0,0.2,0,0.5l0,0.7c0,0.5,0.1,0.8,0.1,0.9c0,0.1,0.1,0.2,0.1,0.4l-0.5,0
			C-204.7,402-204.7,401.9-204.8,401.8z M-204.9,400.6c-0.2,0.1-0.5,0.2-0.8,0.2c-0.2,0-0.4,0.1-0.4,0.1c-0.1,0-0.1,0.1-0.2,0.2
			c0,0.1-0.1,0.2-0.1,0.2c0,0.1,0.1,0.2,0.2,0.3c0.1,0.1,0.3,0.1,0.5,0.1c0.2,0,0.4-0.1,0.5-0.2c0.1-0.1,0.3-0.2,0.3-0.4
			c0-0.1,0.1-0.3,0.1-0.5L-204.9,400.6z"/>
		<path class="st0" d="M-202,402.3l0.5-2.9l0.4,0.1l-0.1,0.4c0.1-0.2,0.3-0.3,0.4-0.4c0.1-0.1,0.2-0.1,0.3,0c0.2,0,0.3,0.1,0.5,0.2
			l-0.2,0.4c-0.1-0.1-0.2-0.1-0.3-0.2c-0.1,0-0.2,0-0.3,0c-0.1,0.1-0.2,0.1-0.2,0.2c-0.1,0.2-0.1,0.4-0.2,0.6l-0.3,1.5L-202,402.3z"
			/>
		<path class="st0" d="M-196.7,403.4c-0.2,0.1-0.4,0.1-0.6,0.1c-0.2,0-0.4,0-0.6-0.1c-0.3-0.1-0.5-0.3-0.6-0.5
			c-0.1-0.2-0.1-0.4,0-0.7c0.1-0.1,0.1-0.2,0.2-0.3c0.1-0.1,0.2-0.1,0.4-0.2c0.1,0,0.3,0,0.4,0c0.1,0,0.3,0,0.4,0.1
			c0.4,0.1,0.7,0.2,0.9,0.2c0-0.1,0-0.1,0.1-0.1c0.1-0.2,0.1-0.3,0-0.5c-0.1-0.2-0.2-0.3-0.5-0.4c-0.2-0.1-0.4-0.1-0.5-0.1
			c-0.1,0-0.3,0.1-0.4,0.3l-0.4-0.2c0.1-0.2,0.3-0.3,0.4-0.4c0.1-0.1,0.3-0.1,0.5-0.1c0.2,0,0.4,0.1,0.7,0.2
			c0.2,0.1,0.4,0.2,0.5,0.3c0.1,0.1,0.2,0.2,0.2,0.3c0,0.1,0,0.2,0,0.4c0,0.1-0.1,0.2-0.1,0.4l-0.3,0.6c-0.2,0.4-0.3,0.7-0.3,0.8
			c0,0.1,0,0.2,0,0.4l-0.5-0.2C-196.8,403.7-196.7,403.6-196.7,403.4z M-196.3,402.4c-0.2,0-0.5,0-0.8-0.1c-0.2,0-0.4-0.1-0.4-0.1
			c-0.1,0-0.2,0-0.2,0.1s-0.1,0.1-0.2,0.2c-0.1,0.1,0,0.2,0,0.4c0.1,0.1,0.2,0.2,0.4,0.3c0.2,0.1,0.4,0.1,0.5,0.1
			c0.2,0,0.3-0.1,0.4-0.2c0.1-0.1,0.2-0.2,0.3-0.4L-196.3,402.4z"/>
		<path class="st0" d="M-194.4,405l1.8-2.4l0.4,0.3l-0.2,0.3c0.4-0.1,0.7-0.1,1.1,0.2c0.1,0.1,0.3,0.2,0.3,0.4
			c0.1,0.1,0.1,0.3,0.1,0.4c0,0.1,0,0.3-0.1,0.4c0,0.1-0.1,0.2-0.3,0.4l-1.1,1.5l-0.4-0.3l1.1-1.5c0.1-0.2,0.2-0.3,0.2-0.4
			c0-0.1,0-0.2,0-0.3c0-0.1-0.1-0.2-0.2-0.3c-0.2-0.1-0.4-0.2-0.6-0.2c-0.2,0-0.4,0.2-0.6,0.5l-1,1.3L-194.4,405z"/>
		<path class="st0" d="M-190.8,408.1l2.2-2l0.3,0.4l-2.2,2L-190.8,408.1z M-188.2,405.7l0.4-0.4l0.3,0.4l-0.4,0.4L-188.2,405.7z"/>
	</g>
	<g>
		<path class="st0" d="M-95.9,424.6c1.1,1.8,3.4,5.4,3.4,5.4h-7.3l-3.4-5.5h-3.4l-1.9,5.5h-6.6l6.3-18.2c0,0,9.3,0,13.7,0
			c1.8,0,3.1,0.9,4,2.5c0.8,1.3,0.9,2.7,0.6,4.2c-0.2,1.5-0.6,2.9-1.5,4.1C-93,423.7-94.3,424.3-95.9,424.6z M-105,419.8
			c0,0,4.3,0,6.3,0c0.7,0,1.3-0.2,1.8-0.6c0.7-0.5,0.9-1.3,0.7-2.1c-0.1-0.5-0.7-0.8-1.5-0.8c-0.9,0-6,0-6,0L-105,419.8z"/>
		<path class="st0" d="M-157.6,430.1l1.6-4.7c0,0,8.8,0,13,0c0.3,0,0.7-0.2,1-0.4c0.3-0.2,0.5-0.6,0.2-1c-0.2-0.4-0.5-0.7-1-0.7
			c-1.9,0-3.9,0-5.8,0c-1.9,0-3.8-1.2-4.5-3c-0.2-0.5-0.3-1.2-0.3-1.8c0-1.3,0.3-2.6,1-3.7c1-1.5,2.3-2.6,4.1-2.9
			c1.1-0.2,2.1-0.3,3.2-0.3c4.5,0,13.8,0,13.8,0l-1.6,4.7l-13.1,0c-0.8,0-1.2,0.4-1.3,1c-0.1,0.7,0.3,1.1,1,1.1c1.9,0,3.7,0,5.6,0
			c1.8,0,3.2,0.7,4.2,2.2c0.4,0.6,0.6,1.3,0.7,2c0.1,1.7-0.3,3.2-1.2,4.6c-0.9,1.4-2.2,2.3-3.9,2.5c-0.9,0.2-1.9,0.3-2.9,0.3
			C-148,430.1-157.6,430.1-157.6,430.1z"/>
		<path class="st0" d="M-123.2,411.8c0,0-2.5,7.4-3.4,10.1c-0.2,0.7-0.4,1.4-0.1,2.1c0.3,0.7,0.8,1.1,1.5,1.2c1.1,0.2,2.1-0.1,3-0.7
			c1.2-0.8,1.9-2,2.3-3.3c0.6-1.9,3.3-9.4,3.3-9.4h6.6l-6.4,18.2h-6.6l0.8-2.3c0,0-0.4,0.3-0.5,0.4c-1.1,0.9-2.3,1.6-3.7,2
			c-1,0.3-2,0.3-3,0.1c-0.8-0.2-1.6-0.4-2.2-0.7c-1.3-0.7-1.9-1.9-2-3.4c-0.2-1.9,0.3-3.6,0.9-5.4c0.7-2.1,3.2-8.9,3.2-8.9H-123.2z"
			/>
		<polygon class="st0" points="-179.8,430 -175,416.4 -181.8,416.4 -180.2,411.8 -160.5,411.8 -162.1,416.4 -168.4,416.4 
			-173.1,430 		"/>
		<polygon class="st0" points="-165.7,430 -159.3,411.8 -152.7,411.8 -159,430 		"/>
	</g>
	<g>
		<g>
			<path class="st0" d="M-198.4,443.2l-1.3-3.7l1.4-0.5c0.2-0.1,0.4-0.1,0.6-0.2c0.2,0,0.4,0,0.5,0c0.2,0,0.3,0.1,0.4,0.3
				c0.1,0.1,0.2,0.3,0.3,0.5c0.1,0.3,0.1,0.6,0,0.9c-0.1,0.3-0.5,0.5-1,0.7l-1,0.3l0.5,1.5L-198.4,443.2z M-198.6,441.1l1-0.3
				c0.3-0.1,0.5-0.2,0.6-0.4c0.1-0.2,0.1-0.4,0-0.6c-0.1-0.2-0.1-0.3-0.3-0.4c-0.1-0.1-0.2-0.1-0.4-0.1c-0.1,0-0.2,0-0.5,0.1l-1,0.3
				L-198.6,441.1z"/>
			<path class="st0" d="M-192.7,439.6l0.5-0.2c0.1,0.3,0.1,0.6,0,0.8c-0.1,0.2-0.3,0.5-0.6,0.6c-0.4,0.2-0.7,0.3-1.1,0.2
				c-0.3-0.1-0.6-0.3-0.9-0.7c-0.2-0.4-0.3-0.8-0.2-1.2c0.1-0.4,0.3-0.6,0.6-0.8c0.3-0.2,0.7-0.2,1-0.1c0.3,0.1,0.6,0.4,0.9,0.8
				c0,0,0,0.1,0.1,0.1l-1.8,1.1c0.2,0.3,0.4,0.4,0.6,0.5c0.2,0.1,0.4,0,0.6-0.1c0.2-0.1,0.3-0.2,0.3-0.4
				C-192.6,440-192.6,439.9-192.7,439.6z M-194.4,439.8l1.4-0.8c-0.1-0.2-0.3-0.3-0.4-0.4c-0.2-0.1-0.4-0.1-0.7,0.1
				c-0.2,0.1-0.3,0.3-0.4,0.5C-194.6,439.3-194.5,439.6-194.4,439.8z"/>
			<path class="st0" d="M-190.4,439.1l-1.8-2.2l0.3-0.3l0.3,0.3c0-0.2,0-0.4,0-0.5c0-0.1,0.1-0.2,0.2-0.3c0.1-0.1,0.3-0.2,0.5-0.2
				l0.2,0.5c-0.1,0-0.2,0.1-0.3,0.1c-0.1,0.1-0.1,0.2-0.2,0.3c0,0.1,0,0.2,0,0.3c0.1,0.2,0.2,0.3,0.3,0.5l1,1.2L-190.4,439.1z"/>
			<path class="st0" d="M-186.9,435.8l-0.3-0.3c0.1,0.4,0,0.7-0.2,1c-0.1,0.1-0.2,0.2-0.4,0.3c-0.1,0.1-0.3,0.1-0.4,0.1
				c-0.1,0-0.2-0.1-0.4-0.1c-0.1,0-0.2-0.1-0.4-0.3l-1.3-1.2l0.3-0.4l1.2,1.1c0.2,0.2,0.3,0.3,0.4,0.3c0.1,0.1,0.2,0.1,0.4,0.1
				c0.1,0,0.2-0.1,0.3-0.2c0.1-0.1,0.2-0.2,0.2-0.4c0-0.1,0-0.3,0-0.4c-0.1-0.1-0.2-0.3-0.4-0.4l-1.1-1l0.3-0.4l2.1,1.9
				L-186.9,435.8z M-190,434.4l-0.3-0.8l0.4-0.5l0.2,0.9L-190,434.4z"/>
		</g>
	</g>
</g>
</svg>
